<svg width="120" height="120" viewBox="0 0 120 120" fill="none" xmlns="http://www.w3.org/2000/svg">
<rect width="120" height="120" fill="#FF5F94"/>
<path d="M52.0898 83.8922L59.9999 56.3695L67.9099 83.8922H52.0898Z" fill="#CEF2FD"/>
<path d="M88.6184 95.6437H31.3823V103.507H88.6184V95.6437Z" fill="#CEF2FD"/>
<path d="M88.6177 93.152H42.0853C42.9389 91.351 43.9377 89.118 45.0108 86.4777H80.7883C82.1647 86.4777 83.2804 85.3617 83.2804 83.9856C83.2804 82.6094 82.1647 81.4936 80.7883 81.4936H78.3865C77.9389 80.3134 77.499 79.1104 77.0737 77.8984C74.9933 71.9709 72.6397 64.7805 70.6468 55.8256H73.5822C74.9586 55.8256 76.0742 54.7096 76.0742 53.3335C76.0742 51.9575 74.9586 50.8414 73.5822 50.8414H55.455C56.6233 44.5917 57.5792 37.667 58.1866 29.9079H61.8141C62.0362 32.7412 62.3108 35.5465 62.6342 38.2759C62.7961 39.6428 64.0352 40.619 65.4021 40.4577C66.7688 40.296 67.7458 39.0567 67.5837 37.69C67.1819 34.2985 66.8567 30.7851 66.617 27.2476C66.5286 25.9395 65.4414 24.9239 64.1306 24.9239H57.3997C57.3927 24.8461 57.3832 24.7688 57.3832 24.6901C57.3832 23.2472 58.5569 22.0733 60 22.0733C61.3764 22.0733 62.4921 20.9573 62.4921 19.5813C62.4921 19.5638 62.4899 19.5469 62.4895 19.5295C62.4897 19.5121 62.4921 19.4952 62.4921 19.4778V16.4921C62.4921 15.116 61.3764 14 60 14C58.6236 14 57.5079 15.116 57.5079 16.4921V17.5109C54.5373 18.5452 52.399 21.3717 52.399 24.6901C52.399 25.9521 52.7122 27.1865 53.3072 28.2907C52.6939 36.738 51.6591 44.1885 50.3784 50.8416H46.418C45.0416 50.8416 43.9259 51.9577 43.9259 53.3337C43.9259 54.7097 45.0416 55.8258 46.418 55.8258H49.3435C47.4283 64.4116 45.1375 71.5987 42.9261 77.8987C42.4841 79.1587 42.0451 80.357 41.614 81.4936H39.2116C37.8352 81.4936 36.7195 82.6096 36.7195 83.9856C36.7195 85.3617 37.8352 86.4777 39.2116 86.4777H39.615C38.4156 89.3067 37.3502 91.5436 36.5386 93.152H31.3825C30.0061 93.152 28.8904 94.2681 28.8904 95.6441V103.508C28.8904 104.884 30.0061 106 31.3825 106H88.6177C89.9941 106 91.1098 104.884 91.1098 103.508V95.6445C91.1099 94.268 89.9939 93.152 88.6177 93.152ZM55.3993 81.4001L60 65.3916L64.6007 81.4001H55.3993ZM72.3705 79.549C72.5991 80.2003 72.8329 80.8483 73.0688 81.4936H69.814L62.4369 55.8256H65.5419C67.6388 65.5391 70.1568 73.2416 72.3705 79.549ZM47.6292 79.5492C49.9898 72.8245 52.4386 65.1147 54.4496 55.8256H57.5634L50.1864 81.4936H46.9322C47.1637 80.8611 47.396 80.2144 47.6292 79.5492ZM86.1256 101.016H33.8745V98.1364H86.1256V101.016Z" fill="#00137E"/>
</svg>
